<svg width="0" height="0" class="hidden">
  <symbol viewBox="0 0 50 50" fill="none" xmlns="http://www.w3.org/2000/svg" id="baby-boy">
    <g clip-path="url(#clip0)" fill="#fff">
      <path d="M42.336 31.893C46.639 31.517 50 28.57 50 25s-3.361-6.518-7.664-6.893a18.72 18.72 0 0 0-8.845-9.718C33.384 3.801 29.644 0 25 0c-4.64 0-8.384 3.797-8.491 8.39a18.72 18.72 0 0 0-8.844 9.717C3.36 18.482 0 21.43 0 25s3.362 6.518 7.665 6.893a18.843 18.843 0 0 0 6.93 8.585c-2.518 1.98-4.39 4.612-5.37 7.6a1.465 1.465 0 0 0 2.784.913c.925-2.822 2.836-5.262 5.418-6.942 4.988 2.223 10.635 2.09 15.414-.123 2.682 1.682 4.66 4.166 5.61 7.065a1.465 1.465 0 0 0 2.785-.912c-1.01-3.08-2.957-5.772-5.582-7.767a18.686 18.686 0 0 0 6.681-8.42zM47.07 25c0 1.711-1.613 3.212-3.8 3.771.51-2.477.51-5.06 0-7.542 2.187.559 3.8 2.06 3.8 3.77zM25 2.93c2.82 0 5.156 2.144 5.518 4.914a8.5 8.5 0 0 0-7.398 5.992 5.552 5.552 0 0 1-3.686-5.242C19.434 5.47 21.93 2.93 25 2.93zM2.93 25c0-1.711 1.613-3.212 3.8-3.771a18.78 18.78 0 0 0 0 7.542c-2.187-.559-3.8-2.06-3.8-3.771zm29.304 13.963c-8.428 4.378-18.915.376-22.149-8.976-2.349-7.028.537-14.747 6.915-18.524a8.467 8.467 0 0 0 7.102 5.58 1.465 1.465 0 0 0 1.61-1.309 5.546 5.546 0 0 1 5.959-4.974c7.16 3.359 10.791 11.604 8.244 19.227-1.416 4.105-4.26 7.2-7.681 8.976z"></path>
      <path d="M21.404 23.274c.572-.573.572-1.5 0-2.072a5.368 5.368 0 0 0-7.596 0 1.465 1.465 0 1 0 2.072 2.072 2.44 2.44 0 0 1 3.452 0c.572.572 1.5.572 2.072 0zm14.844-2.072a5.368 5.368 0 0 0-7.596 0 1.465 1.465 0 1 0 2.071 2.071 2.44 2.44 0 0 1 3.453 0 1.465 1.465 0 1 0 2.072-2.071zm-8.417 9.793a4.009 4.009 0 0 1-5.662 0 1.465 1.465 0 0 0-2.072 2.072 6.942 6.942 0 0 0 9.806 0 1.465 1.465 0 0 0-2.072-2.072z"></path>
    </g>
    <defs>
      <clipPath id="clip0">
        <path fill="#fff" d="M0 0h50v50H0z"></path>
      </clipPath>
    </defs>
  </symbol>
  <symbol viewBox="0 0 50 50" fill="none" xmlns="http://www.w3.org/2000/svg" id="beard">
    <g clip-path="url(#clip0)">
      <path d="M43.712 3.456a1.465 1.465 0 0 0-2.501 1.036V6.73c0 3.08-1.657 6-4.293 7.686a11.381 11.381 0 0 0-7.272-2.6H27.93a1.465 1.465 0 1 0 0 2.93h1.716c2.084 0 4.053.744 5.608 2.103v2.292c0 .807-.657 1.465-1.465 1.465H16.211a1.467 1.467 0 0 1-1.465-1.465v-2.292a8.473 8.473 0 0 1 5.608-2.103h1.716a1.465 1.465 0 0 0 0-2.93h-1.716a11.38 11.38 0 0 0-7.272 2.6C10.446 12.73 8.79 9.81 8.79 6.73V4.492a1.465 1.465 0 0 0-2.5-1.036A21.455 21.455 0 0 0 0 18.638v17.289a7.306 7.306 0 0 0 4.504 6.762c3.836 1.6 11.6 4.284 20.496 4.284 8.896 0 16.66-2.684 20.496-4.284A7.306 7.306 0 0 0 50 35.927V18.638a21.454 21.454 0 0 0-6.288-15.182zm3.358 32.47a4.384 4.384 0 0 1-2.701 4.06C40.735 41.5 33.386 44.042 25 44.042S9.265 41.5 5.631 39.985a4.384 4.384 0 0 1-2.701-4.058V18.638A18.41 18.41 0 0 1 5.986 8.43c.528 3.546 2.681 6.762 5.83 8.647v2.064a4.4 4.4 0 0 0 4.395 4.394h17.578a4.4 4.4 0 0 0 4.395-4.394v-2.064c3.149-1.885 5.302-5.101 5.83-8.647a18.413 18.413 0 0 1 3.056 10.208v17.289z"
        fill="#fff"></path>
    </g>
    <defs>
      <clipPath id="clip0">
        <path fill="#fff" d="M0 0h50v50H0z"></path>
      </clipPath>
    </defs>
  </symbol>
  <symbol viewBox="0 0 50 50" fill="none" xmlns="http://www.w3.org/2000/svg" id="clipper">
    <g clip-path="url(#clip0)">
      <path d="M49.571 17.002a1.465 1.465 0 0 0-2.072 0l-2.416 2.417-2.072-2.072 2.417-2.417a1.465 1.465 0 1 0-2.072-2.071l-2.417 2.416-2.071-2.071 2.416-2.417a1.465 1.465 0 1 0-2.071-2.072l-2.417 2.417-2.072-2.071 2.417-2.417a1.465 1.465 0 0 0-2.071-2.072L32.653 6.99 30.58 4.918 32.998 2.5A1.465 1.465 0 1 0 30.927.429L7.198 25.104a12.454 12.454 0 0 0-3.416 8.775A12.49 12.49 0 0 0 4.9 38.885L3.305 40.48a4.366 4.366 0 0 0-1.287 3.108c0 .666.148 1.31.428 1.895L.429 47.5a1.465 1.465 0 1 0 2.072 2.071l2.018-2.018a4.404 4.404 0 0 0 5-.858l1.596-1.596a12.493 12.493 0 0 0 5.189 1.12c3.209 0 6.254-1.21 8.591-3.418l24.676-23.728c.572-.572.572-1.5 0-2.071zM7.448 44.623c-.57.572-1.5.572-2.071 0a1.466 1.466 0 0 1 0-2.071l1.096-1.096a12.686 12.686 0 0 0 2.071 2.071l-1.096 1.096zm15.436-3.952a9.54 9.54 0 0 1-13.364-.19 9.54 9.54 0 0 1-.19-13.365l11.307-11.972a9.237 9.237 0 0 0 2.694 6.001l5.524 5.524a9.21 9.21 0 0 0 5.995 2.7L22.884 40.671zm12.531-14.214a6.3 6.3 0 0 1-4.488-1.86l-5.525-5.523a6.307 6.307 0 0 1-1.859-4.489c0-1.196.329-2.341.943-3.333l14.262 14.262a6.308 6.308 0 0 1-3.333.943zm5.524-2.895L26.44 9.06l2.07-2.072L43.012 21.49l-2.072 2.072z"
        fill="#fff"></path>
      <path d="M19.878 25.728a4.365 4.365 0 0 0-3.107 1.287l-4.143 4.143a4.4 4.4 0 0 0 0 6.215 4.38 4.38 0 0 0 3.107 1.285 4.38 4.38 0 0 0 3.107-1.285l4.143-4.143a4.365 4.365 0 0 0 1.288-3.107 4.365 4.365 0 0 0-1.288-3.108 4.365 4.365 0 0 0-3.107-1.287zm-3.107 9.574c-.571.571-1.5.57-2.072 0a1.466 1.466 0 0 1 0-2.072l1.036-1.036 2.072 2.072-1.036 1.036zm4.143-4.144l-1.036 1.036-2.072-2.071 1.036-1.036a1.455 1.455 0 0 1 1.036-.43c.391 0 .76.153 1.036.43a1.46 1.46 0 0 1-.001 2.071z"
        fill="#fff"></path>
      <path stroke="#000" d="M.5 42v376"></path>
    </g>
    <defs>
      <clipPath id="clip0">
        <path fill="#fff" d="M0 0h50v50H0z"></path>
      </clipPath>
    </defs>
  </symbol>
  <symbol viewBox="0 0 32 32" fill="none" xmlns="http://www.w3.org/2000/svg" id="facebook">
    <path d="M7.444 0h17.111c2.049 0 3.91.837 5.258 2.186a7.426 7.426 0 0 1 2.186 5.259v17.111a7.42 7.42 0 0 1-2.186 5.258A7.425 7.425 0 0 1 24.555 32H7.444a7.422 7.422 0 0 1-5.259-2.186 7.421 7.421 0 0 1-2.186-5.258V7.445c0-2.049.837-3.91 2.186-5.259A7.422 7.422 0 0 1 7.444 0zm17.112 2.667H7.445a4.764 4.764 0 0 0-3.373 1.404 4.764 4.764 0 0 0-1.404 3.373v17.111c0 1.312.538 2.507 1.404 3.373a4.765 4.765 0 0 0 3.373 1.405h17.111a4.76 4.76 0 0 0 3.373-1.405 4.766 4.766 0 0 0 1.405-3.373V7.444a4.76 4.76 0 0 0-1.405-3.373 4.766 4.766 0 0 0-3.373-1.404z"
      fill="#fff" stroke="#fff"></path>
    <path d="M12 13.333h1.333v-2.667c0-.008 0-2.667 2.667-2.667h4v2.667h-4v2.667h2.667V16H16v8h-2.667v-8H12v-2.667z" fill="#fff" stroke="#fff"></path>
  </symbol>
  <symbol xmlns="http://www.w3.org/2000/svg" viewBox="0 0 512 512" fill="#fff" id="family">
    <path d="M184 72h16v16h-16z"></path>
    <path d="M473.529 220.688a90.821 90.821 0 0 0-35.747-144.574l-50.91-19.581a8 8 0 0 0-10.633 5.527l-1.864 7.457a35.145 35.145 0 0 0 2.425 23.671 77.866 77.866 0 0 0-46.981 51.333l-.543 1.9-28.853 14.427a8 8 0 0 0-3.078 11.593l14.036 21.055-6.358 25.423A34.966 34.966 0 0 0 304 227.27a34.51 34.51 0 0 0 26.166 33.52l5.834 1.46v22.563l-9.675-2.709c-.015 0-.03-.006-.044-.01l-88.711-24.842-10.648-21.3a27.951 27.951 0 0 0-8.048-38.322l-7.48-4.986-9.182-6.121L192 166.111V142.6A52.017 52.017 0 0 0 232 92V68a52 52 0 0 0-104 0v24a51.729 51.729 0 0 0 4.839 21.916l-58.182 33.935a53.737 53.737 0 0 0-25.233 58.7A31.869 31.869 0 0 0 48 216v28l-28.8 21.6A8 8 0 0 0 16 272v34.053a21.947 21.947 0 0 0 42.768 6.94l3.774-11.32 18.5-9.251a55.648 55.648 0 0 0 30.691-44.649 53.705 53.705 0 0 0 23.624-7.939l12.094-7.555 30.53 87.767a48.277 48.277 0 0 0 30.159 29.764l85.21 28.409c.013 0 .026.006.039.01l17.851 5.95-30.893 101.491 15.306 4.66 30.771-101.089 48.689 16.23A49.3 49.3 0 0 0 440 358.7v-7.379A49.462 49.462 0 0 0 420.386 312h7.245A125.383 125.383 0 0 1 443 406.328l-18.79 79.839 15.574 3.666 18.79-79.841A141.416 141.416 0 0 0 440 301.636v-42.63zM389.613 74.73l42.426 16.318a74.821 74.821 0 0 1 29.449 119.1l-25.437 29.07-10.792-43.168a27.754 27.754 0 0 0 11.641-28.357 27.677 27.677 0 0 0-39.518-19.327l-1.18.591-2.059-5.147a27.675 27.675 0 0 1 10.3-33.154 8 8 0 0 0-1.908-14.245 19.421 19.421 0 0 1-12.922-21.681zM212.935 228.088a11.973 11.973 0 0 1-16.215 2.777l-3.109-2.072 15.011-18.764 1.376.918a11.971 11.971 0 0 1 2.937 17.141zm-51.123-20.5A39.919 39.919 0 0 1 144 174.311V136a16.071 16.071 0 0 1 15.378-15.975 17.243 17.243 0 0 1 16.6 16.32c.019.284.023.561.023.845V184a8 8 0 0 0 3.562 6.656l15.7 10.464-15.01 18.764zM128 136v7.384l-2.971 1.188a8 8 0 0 0-4.585 10.056l7.626 21.925a55.982 55.982 0 0 0 1.674 11.642l-25.9-38.845 24.171-14.1c-.002.25-.015.499-.015.75zm16-68a36 36 0 0 1 72 0v24a35.77 35.77 0 0 1-25.614 34.49 33.022 33.022 0 0 0-8.235-13.333 31.423 31.423 0 0 0-22.766-9.151h-.074c-.166 0-.33-.009-.5-.009a33.2 33.2 0 0 0-11.872 2.214A35.832 35.832 0 0 1 144 92zM96 242.334a39.785 39.785 0 0 1-22.111 35.778l-21.467 10.733a7.994 7.994 0 0 0-4.011 4.625l-4.822 14.464A5.947 5.947 0 0 1 32 306.053V276l28.8-21.6A8 8 0 0 0 64 248v-32a16 16 0 0 1 32 0zm16-10.687V216a31.984 31.984 0 0 0-47.448-28.013 37.884 37.884 0 0 1 18.167-26.316L90 157.425l43.242 64.866-6.36 3.973A37.725 37.725 0 0 1 112 231.647zm81.1 83.145l-30.4-87.376 25.143 16.762a27.957 27.957 0 0 0 26.518 2.437l10.482 20.963a8 8 0 0 0 5 4.126l83.957 23.51-22.867 65.334L213.2 334.63a32.177 32.177 0 0 1-20.1-19.838zM424 358.7a33.3 33.3 0 0 1-43.828 31.59l-74.057-24.686 23.127-66.071 70.438 19.723A33.41 33.41 0 0 1 424 351.323zM375.956 296L352 289.292V262.25a15.974 15.974 0 0 0-12.116-15.52l-5.831-1.46a18.534 18.534 0 0 1-14.053-18 18.9 18.9 0 0 1 .551-4.5l2.77-11.076a50.612 50.612 0 0 0 32.257-4.54l-7.156-14.31a34.926 34.926 0 0 1-21.208 3.285l.547-2.19a8 8 0 0 0-1.105-6.378L315.683 171.1l23.895-11.948a8 8 0 0 0 4.114-4.956l1.51-5.28a61.886 61.886 0 0 1 39.935-41.736 43.761 43.761 0 0 0-5.852 42.569l5.287 13.219a8 8 0 0 0 11.006 4.184l8.957-4.478a11.677 11.677 0 1 1 10.444 20.889l-2.557 1.279a8 8 0 0 0-4.183 9.095L424 256.985V296z"></path>
    <path d="M352 152h16v16h-16z"></path>
  </symbol>
  <symbol viewBox="0 0 50 50" fill="none" xmlns="http://www.w3.org/2000/svg" id="hair">
    <g clip-path="url(#clip0)">
      <path d="M41.455 26.82c3.087-3.104 5.132-8.606-2.223-14.007-2.029-.677-6.568-17.578-23.18-11.494-16.613 6.084-6.47 13.233-6.47 13.233s-4.955 8.952-2.719 12.495c-1.605.965-2.244 2.626-2.227 4.108.028 2.585 1.85 5.376 4.576 5.761.221 4.151 2.403 7.112 4.24 8.888 2.646 2.56 6.171 4.197 9.03 4.197.051 0 .1 0 .152-.002 2.773-.057 7.35-2.968 10.88-6.923 1.642-1.837 4.289-5.327 4.295-8.677 4.607-.53 4.862-3.595 4.826-4.553a5.07 5.07 0 0 0-1.18-3.026zm-4.29 6.47l-.595.038.055.595c.212 2.251-1.24 5.306-3.982 8.38-3.28 3.677-7.596 6.486-10.037 6.536-2.56.095-5.908-1.506-8.351-3.87-1.754-1.698-3.854-4.565-3.902-8.597l-.006-.56-.561-.012c-2.357-.043-3.966-2.443-3.99-4.656-.018-1.533.69-2.66 1.94-3.26.48.305 1.064.525 1.844.576.036.233.085-.204.151-1.056.024-.001.042-.006.065-.007l-.023-.561c.303-4.191.904-14.62 2.028-12.67 1.256 3.863 21.925 3.283 24.05 0 .677-1.064-.58 12.653.484 14.873.372.782 2.369.126 4.267-1.445a3.97 3.97 0 0 1 .871 2.29c.077 1.983-1.493 3.224-4.308 3.407z"
        fill="#fff"></path>
    </g>
    <defs>
      <clipPath id="clip0">
        <path fill="#fff" d="M0 0h50v50H0z"></path>
      </clipPath>
    </defs>
  </symbol>
  <symbol viewBox="0 0 24 50" fill="none" xmlns="http://www.w3.org/2000/svg" id="hair-brush">
    <g clip-path="url(#clip0)">
      <path d="M8.862 7.503c-.031.351.058.687.21.82.24.198.487-.168.487-.678 0-.649-.607-1.038-.697-.142zm.594 2.98a.48.48 0 0 0-.114-.159c-.52-.433-.702 1.41-.135 1.41.191 0 .352-.324.352-.733 0-.098-.04-.39-.103-.518zm.076 3.593c-.23-1.133-.954.006-.573.798.27.564.722-.063.573-.798zm-.67 3.494a1.32 1.32 0 0 0 .097.66c.223.465.6.125.6-.518 0-.882-.611-1.003-.697-.142zm0 3.355a1.32 1.32 0 0 0 .097.66c.221.462.6.131.6-.517 0-.788-.609-1.024-.697-.143zm.67 3.218c-.151-.745-.676-.507-.676.28 0 .653.38.977.6.518a1.23 1.23 0 0 0 .103-.517c0-.098-.01-.198-.027-.28zm-.676 3.637c0 .578.31.935.546.609.104-.148.157-.379.157-.61 0-.948-.703-.99-.703 0zm1.869-22.472c-.236-.197-.486.16-.486.677 0 .651.38.978.6.518.066-.136.103-.325.103-.518 0-.283-.08-.56-.217-.677zm-.065 3.315c-.136-.057-.283.06-.362.311-.209.644.162 1.464.488 1.016.27-.383.167-1.213-.127-1.327zm.126 3.464c-.206-.283-.488-.056-.54.467a1.561 1.561 0 0 0-.007.142c0 .194.038.382.103.518.354.736.878-.507.444-1.127zm-.52 3.685c-.149.734.303 1.36.573.798.066-.136.103-.324.103-.518 0-.796-.527-1.014-.676-.28zm.394 2.918c-.115-.048-.237.03-.318.2-.176.367-.117.995.114 1.195.39.323.719-1.194.203-1.395zm0 3.356c-.115-.048-.236.029-.318.2-.248.516-.015 1.38.317 1.235.367-.143.385-1.285 0-1.435zm-.318 3.556c-.338.704.177 1.703.497 1.035.066-.136.103-.324.103-.518 0-.656-.382-.974-.6-.517zm1.701-18.675c-.155-.064-.324.096-.394.438-.12.59.163 1.203.46.957.323-.279.27-1.263-.066-1.395zm-.413 3.931c-.067.726.352 1.161.593.66.065-.135.103-.324.103-.517 0-.857-.609-1.029-.697-.143zm-.007 3.499c0 .193.037.382.102.517.222.462.6.129.6-.517 0-.961-.702-.975-.702 0zm.485 2.678c-.394-.327-.678.791-.33 1.287.235.322.548-.025.548-.61 0-.098-.08-.558-.218-.677zm.158 3.627c-.194-.614-.643-.298-.643.406 0 .503.242.879.485.677.207-.18.28-.706.158-1.083zm-.158 3.085c-.431-.359-.699.982-.268 1.354.434.36.693-.988.268-1.354zm-.485 4.033c0 .506.244.877.485.676a.393.393 0 0 0 .061-.067c.104-.148.157-.378.157-.61 0-.948-.703-.988-.703 0zm1.41-22.075c-.15.735.303 1.36.573.798.066-.136.103-.325.103-.518 0-.795-.527-1.017-.676-.28zm.076 3.118c-.138.287-.136.752 0 1.035.222.463.6.128.6-.517 0-.652-.382-.976-.6-.518zm-.103 3.873c0 .23.053.463.156.61.237.326.547-.033.547-.61 0-.95-.703-.985-.703 0zm.486 2.679c-.166-.137-.34-.003-.427.27-.14.43-.02 1.03.224 1.125.399.174.605-1.047.203-1.395zm-.459 3.753c-.074.363.008.8.19.957.09.074.18.074.269 0 .133-.115.217-.385.217-.677 0-.782-.524-1.032-.676-.28zm.459 2.959c-.434-.36-.7.982-.27 1.353.07.058.14.07.204.041.344-.134.379-1.124.066-1.394zm-.384 3.515c-.293.61.086 1.619.444 1.127.104-.148.157-.38.157-.61 0-.648-.38-.979-.6-.517zm-2.383 3.196c-.165-.138-.34-.003-.427.27-.237.732.244 1.544.541.924.178-.367.116-.995-.114-1.194zm2.701-.041c-.412-.172-.597 1.055-.203 1.395a.21.21 0 0 0 .134.055.172.172 0 0 0 .069-.014c.375-.147.375-1.29 0-1.436zM12.32 46.794c-.026-.255-.107-.445-.21-.534-.396-.33-.68.79-.33 1.286.264.364.602-.127.54-.752zM14.396 7.6a1.32 1.32 0 0 0 .096.66c.222.464.6.13.6-.517 0-.852-.608-1.024-.696-.143zm.414 2.78c-.41-.17-.599 1.055-.204 1.395.478.397.704-1.199.203-1.394zm.18 3.557c-.222-.462-.6-.131-.6.517 0 .194.037.382.102.518.328.682.831-.36.497-1.035zm.095 3.73a1.411 1.411 0 0 0-.02-.137c-.11-.55-.466-.604-.617-.126-.236.73.244 1.543.541.924.066-.136.103-.325.103-.518 0-.048-.002-.096-.007-.143zm-.593 2.981c-.138.288-.135.754 0 1.035.223.463.6.128.6-.517 0-.65-.38-.978-.6-.518z"
        fill="#000"></path>
      <path d="M23.262 27.145h-1.776l.002-.103v-1.788h1.774a.735.735 0 0 0 .738-.732.735.735 0 0 0-.738-.733h-1.774V21.9h1.774a.735.735 0 0 0 .738-.733.735.735 0 0 0-.738-.732h-1.774v-1.891h1.774a.735.735 0 0 0 .738-.732.735.735 0 0 0-.738-.733h-1.774v-1.89h1.774a.735.735 0 0 0 .738-.733.735.735 0 0 0-.738-.732h-1.774v-1.891h1.774A.735.735 0 0 0 24 11.1a.735.735 0 0 0-.738-.733h-1.774V8.476h1.774A.735.735 0 0 0 24 7.743a.735.735 0 0 0-.738-.732h-1.91a5.632 5.632 0 0 0-4.68-4.314V2.05c0-1.129-.928-2.05-2.067-2.05H12.93a.735.735 0 0 0-.738.732c0 .405.33.733.738.733h1.675c.326 0 .59.263.59.586v.586H8.7V2.05c0-.323.265-.586.59-.586h.195a.735.735 0 0 0 .738-.733A.735.735 0 0 0 9.485 0H9.29C8.15 0 7.223.92 7.223 2.05v.646a5.631 5.631 0 0 0-4.68 4.315H.738A.735.735 0 0 0 0 7.743c0 .405.33.733.738.733h1.67v1.89H.737A.735.735 0 0 0 0 11.1c0 .404.33.732.738.732h1.67v1.89H.737a.735.735 0 0 0-.738.733c0 .405.33.733.738.733h1.67v1.89H.737A.735.735 0 0 0 0 17.81c0 .404.33.732.738.732h1.67v1.891H.737a.735.735 0 0 0-.738.732c0 .405.33.733.738.733h1.67v1.89H.737a.735.735 0 0 0-.738.733c0 .404.33.732.738.732h1.67c0 .91-.003 1.63.002 1.891H.738a.735.735 0 0 0-.738.733c0 .404.33.732.738.732h1.896a5.637 5.637 0 0 0 4.59 3.965v.645c0 .945.648 1.74 1.525 1.977v4.997c0 .404.33.732.738.732a.735.735 0 0 0 .738-.732v-2.127h3.445v8.76c0 .941-.773 1.708-1.722 1.708-.95 0-1.723-.767-1.723-1.709v-3.214a.735.735 0 0 0-.738-.732.735.735 0 0 0-.738.732v3.214c0 1.75 1.435 3.174 3.199 3.174 1.763 0 3.198-1.424 3.198-3.174V35.196a2.055 2.055 0 0 0 1.526-1.977v-.647a5.592 5.592 0 0 0 1.6-.483.73.73 0 0 0 .346-.977.741.741 0 0 0-.984-.345c-1.428.678-1.948.287-9.592.401-2.293 0-4.159-1.85-4.159-4.127V8.23c0-2.276 1.866-4.127 4.16-4.127h7.81c2.293 0 4.159 1.851 4.159 4.127v18.814a4.05 4.05 0 0 1-.341 1.629.73.73 0 0 0 .383.963.74.74 0 0 0 .971-.38c.093-.211.17-.427.235-.645h2.002a.735.735 0 0 0 .738-.732.735.735 0 0 0-.738-.733zm-9.592 9.457h-3.445v-1.33h3.445v1.33zM8.7 32.634h6.495v.586a.589.589 0 0 1-.59.586H9.29a.589.589 0 0 1-.59-.586v-.586z"
        fill="#fff"></path>
    </g>
    <defs>
      <clipPath id="clip0">
        <path fill="#fff" d="M0 0h24v50H0z"></path>
      </clipPath>
    </defs>
  </symbol>
  <symbol fill="#fff" viewBox="0 0 511.558 511.558" xmlns="http://www.w3.org/2000/svg" id="hipster">
    <path d="M390.052 179.932h-6.864v-30.831c0-6.858-1.421-13.651-4.091-19.919a50.584 50.584 0 0 0 9.377-29.018l.001-.211v-.177l-.001-.154c-.177-37.575-30.432-68.087-67.595-68.087H218.108c-16.708 0-32.803-6.213-45.319-17.494l-9.803-8.835a20.239 20.239 0 0 0-21.755-3.464C133.904 5 129.17 12.306 129.17 20.352v79.424a50.609 50.609 0 0 0 6.389 24.67 50.55 50.55 0 0 0-6.389 24.655v30.831h-7.664c-26.644 0-48.32 21.911-48.32 48.842 0 26.932 21.677 48.842 48.32 48.842h7.664v78.555c0 3.03.1 6.263 1.139 9.14a15.063 15.063 0 0 0 4.82 6.685l38.301 30.196v94.368c0 8.284 6.716 15 15 15h135.267c8.284 0 15-6.716 15-15v-94.354l38.455-30.023a15.058 15.058 0 0 0 4.853-6.662c1.075-2.933 1.184-6.254 1.184-9.348v-78.555h6.864c26.644 0 48.32-21.911 48.32-48.842 0-26.934-21.677-48.844-48.321-48.844zM159.17 149.101c0-.99.092-1.965.229-2.93a49.21 49.21 0 0 0 19.735 4.116h159.378c5.091 0 10.004-.777 14.635-2.214.017.342.042.683.042 1.028v45.773c0 .02-.003.038-.003.058s.003.038.003.058v91.11c-3.811 5.263-9.128 11.754-15.694 17.622-7.164 6.402-17.882 6.192-24.931-.487l-14.513-13.752c-3.288-3.115-7.788-4.608-12.274-4.016a14.922 14.922 0 0 0-10.806 7.022c-2.89 4.618-11.285 14.153-18.791 14.153-7.507 0-15.902-9.536-18.749-14.083a15.001 15.001 0 0 0-23.123-3.075l-14.512 13.751c-7.05 6.679-17.769 6.889-24.932.487-6.566-5.867-11.884-12.358-15.694-17.621zm0-107.428c16.96 12.86 37.593 19.861 58.938 19.861H320.88c20.697 0 37.542 17.178 37.596 38.316a20.688 20.688 0 0 1-6.99 15.482l-.001.001c-.188.146-.355.307-.534.46-3.415 2.805-7.736 4.493-12.438 4.493H179.134c-5.375 0-10.251-2.204-13.844-5.766-.221-.25-.454-.494-.694-.732a20.719 20.719 0 0 1-5.426-14.013zm-37.664 205.943c-10.102 0-18.32-8.453-18.32-18.842 0-10.39 8.219-18.842 18.32-18.842h7.664v37.685h-7.664zm81.923 233.942v-49.284l7.813 9.085c11.021 12.818 27.337 20.17 44.761 20.171h.001c17.423 0 33.739-7.352 44.762-20.17l7.931-9.223v49.422H203.429zm102.668-91.963a15.006 15.006 0 0 0-2.143 2.043l-25.936 30.16c-5.317 6.184-13.343 9.73-22.017 9.73-8.673 0-16.697-3.546-22.015-9.73l-25.937-30.16a15.05 15.05 0 0 0-2.086-1.999l-7.781-6.135a15.11 15.11 0 0 0-.846-.667l-38.169-30.091v-23.238c8.377 5.965 18.112 8.947 27.853 8.947 11.982 0 23.964-4.496 33.408-13.445l2.968-2.812c7.655 7.208 18.816 14.444 32.781 14.444 13.964 0 25.126-7.236 32.78-14.444l2.969 2.813c17.122 16.224 42.578 17.799 61.26 4.498v23.321zm83.955-141.979h-6.864v-37.685h6.864c10.102 0 18.32 8.453 18.32 18.842.001 10.391-8.218 18.843-18.32 18.843z"></path>
  </symbol>
  <symbol viewBox="0 0 24 24" xmlns="http://www.w3.org/2000/svg" id="index-finger">
    <path d="M7.5 16a.5.5 0 0 1-.5-.5V2.012c0-1.094.89-1.991 1.984-2h.017c.531 0 1.03.205 1.407.58.382.378.592.883.592 1.42v5.786a1.947 1.947 0 0 1 3.201 1.649l-.203 2.503a.5.5 0 0 1-.996-.08l.203-2.503a.935.935 0 0 0-.36-.824.935.935 0 0 0-.889-.154.95.95 0 0 0-.646.828l-.312 2.75c-.03.263-.231.469-.525.442A.5.5 0 0 1 10 11.91V2.012a.991.991 0 0 0-.296-.71c-.19-.19-.435-.315-.712-.29a1.003 1.003 0 0 0-.992 1V15.5a.5.5 0 0 1-.5.5z"></path>
    <path d="M8 23.91a.5.5 0 0 1-.395-.193C7.458 23.528 4 19.04 4 15.41c0-3.285 2.938-4.649 3.063-4.706a.5.5 0 0 1 .413.911C7.375 11.662 5 12.78 5 15.41c0 3.29 3.36 7.649 3.395 7.693A.498.498 0 0 1 8 23.91zm8.5-10.5a.5.5 0 0 1-.5-.5v-2a1 1 0 0 0-1.913-.407.499.499 0 1 1-.914-.404A1.999 1.999 0 0 1 17 10.91v2a.5.5 0 0 1-.5.5z"></path>
    <path d="M16.001 23.91a.5.5 0 0 1-.356-.852C15.68 23.023 19 19.603 19 13.202v-.292a1 1 0 0 0-2 0 .5.5 0 0 1-1 0c0-1.103.897-2 2-2s2 .897 2 2v.292c0 6.837-3.498 10.413-3.646 10.562a.502.502 0 0 1-.353.146z"></path>
  </symbol>
  <symbol viewBox="0 0 32 32" fill="none" xmlns="http://www.w3.org/2000/svg" id="instagram">
    <g clip-path="url(#clip0)" fill="#fff" stroke="#fff">
      <path d="M7.444 0h17.111c2.049 0 3.91.837 5.259 2.186A7.422 7.422 0 0 1 32 7.445v17.111c0 2.048-.837 3.91-2.186 5.259a7.422 7.422 0 0 1-5.259 2.186H7.444a7.422 7.422 0 0 1-5.259-2.186 7.422 7.422 0 0 1-2.186-5.259V7.445c0-2.049.837-3.91 2.186-5.259A7.422 7.422 0 0 1 7.444 0zm17.112 2.667H7.445a4.762 4.762 0 0 0-3.373 1.404 4.764 4.764 0 0 0-1.404 3.373v17.111c0 1.313.538 2.507 1.404 3.373a4.764 4.764 0 0 0 3.373 1.404h17.111a4.762 4.762 0 0 0 3.373-1.404 4.764 4.764 0 0 0 1.404-3.373V7.444a4.762 4.762 0 0 0-1.404-3.373 4.764 4.764 0 0 0-3.373-1.404z"></path>
      <path d="M16 8a8 8 0 1 0 0 16 8 8 0 0 0 0-16zm0 2.667a5.333 5.333 0 1 1 0 10.666 5.333 5.333 0 0 1 0-10.666zm6.667-4h2.667v2.667h-2.667V6.667z"></path>
    </g>
    <defs>
      <clipPath id="clip0">
        <path fill="#fff" d="M0 0h32v32H0z"></path>
      </clipPath>
    </defs>
  </symbol>
  <symbol viewBox="0 0 32 32" fill="none" xmlns="http://www.w3.org/2000/svg" id="map-icon">
    <path d="M16 2.667A9.326 9.326 0 0 0 6.667 12C6.667 19 16 29.333 16 29.333S25.333 19 25.333 12A9.326 9.326 0 0 0 16 2.667zM9.333 12A6.67 6.67 0 0 1 16 5.333 6.67 6.67 0 0 1 22.667 12c0 3.84-3.84 9.587-6.667 13.173C13.227 21.613 9.333 15.8 9.333 12z"
      fill="#fff"></path>
    <path d="M19.333 12a3.335 3.335 0 0 1-4.621 3.132A3.332 3.332 0 1 1 19.333 12z" fill="#fff"></path>
  </symbol>
  <symbol viewBox="0 0 50 50" fill="none" xmlns="http://www.w3.org/2000/svg" id="person">
    <g clip-path="url(#clip0)" fill="#fff">
      <path d="M45.806 43.354a5.153 5.153 0 0 0-4.267-3.306l-.022-.003a1.312 1.312 0 0 0-1.295-1.113h-2.185a1.31 1.31 0 0 0-1.102.605l-1.118-.125.725-3.669c2.263-.21 3.587-2.336 3.741-2.597l1.9-2.914a3.285 3.285 0 0 0 2.81-1.686l.527-.952a3.29 3.29 0 0 0 .199-2.72c1.744-2.299 2.427-4.446 2.03-6.388-.383-1.867-1.722-3.425-3.98-4.632l-.083-.044c-1.104-.6-7.292-5.084-10.907-9.411-2.444-2.927-5.57-4.528-8.578-4.39C21.5.13 19.055 1.667 17.13 4.451c-1.999 2.89-1.988 6.44.032 10.264 1.175 2.225 2.69 3.911 3.304 4.55l-.966 6.569a12.057 12.057 0 0 0 1.282 7.443 7.905 7.905 0 0 0 2.537 2.848s-.574 1.799-.583 1.834l-3.455-.383a1.308 1.308 0 0 0-1.038-.513c-.816-.055-2.475.09-3.293.032-1.937-.216-4.216 1.182-4.216 1.182a17.005 17.005 0 0 0-8.283 9.14c-.277.637-.682 1.553.41 1.75h4.872a.743.743 0 1 0 0-1.485h-3.79a15.586 15.586 0 0 1 5.06-6.59c1.42-1.068 3.857-2.715 5.744-2.524v9.114H11.22a.743.743 0 1 0 0 1.485h3.617c.192.486.665.832 1.219.832h2.185c.554 0 1.027-.346 1.22-.832h17.356c.192.486.665.832 1.22.832h2.184c.554 0 1.028-.346 1.22-.832h5.494a.764.764 0 0 0 .694-1.006l-1.824-4.808zM39.03 32.35a.764.764 0 0 0-.023.038c-.01.016-.82 1.408-2.154 1.79l.216-1.09 2.593-2.382a1.79 1.79 0 0 1 .733-.45L39.03 32.35zm-16.936.233a10.582 10.582 0 0 1-1.124-6.532l1.596-10.856c1.771 2.09 4.491 3.855 8.115 5.263a.743.743 0 1 0 .538-1.384c-4.16-1.616-7.008-3.69-8.468-6.166L20.78 8.914a.743.743 0 1 0-1.332.657l1.883 3.815-.583 3.966c-.674-.8-1.562-1.977-2.29-3.36-1.752-3.338-1.788-6.263-.106-8.695 1.675-2.423 3.666-3.703 5.918-3.805 2.503-.114 5.258 1.328 7.37 3.858 3.802 4.551 10.143 9.115 11.339 9.764 0 0 3.026 2.256 3.316 3.67.291 1.424-.222 3.063-1.527 4.88l-.925-.876a.764.764 0 0 0-1.185.23s-1.237 2.707-1.248 2.754c-.181.725-1.012.634-1.525.335-.624-.363-.575-1.108-.27-1.688.02-.037.74-2.15.74-2.15a.766.766 0 0 0-.61-.975c-.022-.003-5.374-1.164-5.374-1.164a.743.743 0 0 0-.404 1.429s3.77.916 4.698 1.072l-.388 1.144c-.675 1.357-.41 2.983 1.013 3.696 1.374.688 3.061.308 3.541-1.268l.745-1.623c.511.483.925.79.86 1.58-.05.6-.456 1.152-.741 1.668a1.79 1.79 0 0 1-1.667.916c-.758-.048-1.5-.125-2.23.148-.641.24-1.11.692-1.601 1.144l-1.565 1.437c-.304.28-.886.65-.973 1.088l-1.63 8.24c-.614 2.308-3.498 3.802-6.063 3.136-2.33-.605-4.067-2.891-3.872-5.098-.053-.174.472-1.756.546-1.97a9.59 9.59 0 0 0 3.948.826.743.743 0 1 0 0-1.485c-1.463 0-2.85-.36-4.01-1.042a6.47 6.47 0 0 1-2.484-2.585zm-4.025 15.932h-1.837V38.55h1.837v9.965zm20.143 0v-1.98a.743.743 0 1 0-1.485 0v1.148H19.553V39.1l3.05.339c.136 2.652 2.24 5.22 4.988 5.934a6.58 6.58 0 0 0 1.654.21c2.848 0 5.545-1.81 6.226-4.43.004-.014.057-.28.057-.28l1.198.134v2.115a.743.743 0 0 0 1.485 0v-2.705h1.838v8.097H38.21zm3.323-.832v-6.136a3.671 3.671 0 0 1 2.884 2.334l1.442 3.802h-4.326z"></path>
      <path d="M24.83 25.913l1.245-2.492a.742.742 0 0 0-1.328-.664L23.5 25.248a.743.743 0 0 0 .332.997c.257.146.76.08.996-.332zm5.175 5.455a.741.741 0 0 0 .156-1.034.744.744 0 0 0-1.036-.162c-.08.058-1.992 1.409-3.896.002a.743.743 0 0 0-.883 1.194c.921.68 1.876.923 2.75.923 1.25 0 2.332-.497 2.909-.923z"></path>
    </g>
    <defs>
      <clipPath id="clip0">
        <path fill="#fff" d="M0 0h50v50H0z"></path>
      </clipPath>
    </defs>
  </symbol>
  <symbol xmlns="http://www.w3.org/2000/svg" viewBox="0 0 512 512" id="place">
    <path d="M425.951 89.021C386.864 32.451 324.917 0 256.006 0S125.148 32.451 86.061 89.021c-38.895 56.284-47.876 127.541-24.072 190.496 6.367 17.192 16.488 33.895 30.01 49.547l150.378 176.634A17.895 17.895 0 0 0 256.006 512a17.892 17.892 0 0 0 13.629-6.302l150.336-176.586c13.582-15.742 23.69-32.427 30.004-49.481 23.852-63.069 14.871-134.326-24.024-190.61zm-9.5 178.072c-4.869 13.158-12.818 26.167-23.613 38.68-.03.03-.06.06-.084.096L256.006 466.487 119.174 305.768c-10.789-12.502-18.738-25.51-23.655-38.794-19.686-52.065-12.215-110.981 19.991-157.592 32.307-46.76 83.519-73.578 140.496-73.578 56.976 0 108.182 26.817 140.49 73.578 32.212 46.611 39.689 105.527 19.955 157.711z"></path>
    <path d="M256.006 106.219c-55.276 0-100.252 44.97-100.252 100.252s44.97 100.252 100.252 100.252 100.252-44.97 100.252-100.252c0-55.276-44.976-100.252-100.252-100.252zm0 164.699c-35.536 0-64.448-28.912-64.448-64.448 0-35.536 28.912-64.448 64.448-64.448 35.536 0 64.448 28.912 64.448 64.448s-28.912 64.448-64.448 64.448z"></path>
  </symbol>
  <symbol viewBox="0 0 62 62" fill="none" xmlns="http://www.w3.org/2000/svg" id="play-button">
    <rect x="61" y="1" width="60" height="60" rx="30" transform="rotate(90 61 1)" stroke="#fff" stroke-width="2"></rect>
    <path d="M43 31L25.75 43.124V18.876L43 31z" fill="#fff"></path>
  </symbol>
  <symbol fill="#fff" xmlns="http://www.w3.org/2000/svg" viewBox="0 0 512 512" id="salon">
    <path d="M505.316 6.671c-.025-.024-.052-.045-.076-.069C501.005 2.405 495.169 0 489.212 0h-.03a22.753 22.753 0 0 0-14.189 4.979 7721.613 7721.613 0 0 0-201.358 166.506L125.557 23.409c-14.622-14.62-38.412-14.618-53.033 0L2.197 93.737a7.5 7.5 0 0 0 10.606 10.607L61.918 55.23l10.733 10.733-49.114 49.114a7.5 7.5 0 0 0 10.606 10.607L83.258 76.57l10.733 10.733-49.115 49.114a7.5 7.5 0 0 0 10.606 10.607l49.115-49.115 10.733 10.733-49.114 49.114a7.5 7.5 0 0 0 10.606 10.607l49.114-49.114 10.733 10.733-49.114 49.114a7.5 7.5 0 0 0 10.606 10.607l49.114-49.114 10.733 10.733-49.114 49.114a7.5 7.5 0 0 0 10.606 10.607l49.114-49.114 10.733 10.733-49.114 49.114a7.5 7.5 0 0 0 10.606 10.607l49.114-49.114 10.734 10.734-49.114 49.114a7.5 7.5 0 0 0 10.606 10.607l49.115-49.115 11.111 11.111a7796.583 7796.583 0 0 0-68.591 60.428c-.01 0-.01 0-.01.011-6.729 5.985-14.069 12.879-21.31 19.409-4.436 3.209-3.591 8.85-1.39 11.051 0 0 0 .01.01.01 7.22 8.74 11.21 19.9 11.21 31.439 0 13.49-5.19 26.11-14.619 35.53l-22.62 22.62C72.47 429.593 15.033 406.818 15 359.55c.02-28.697 23.197-52.399 52.479-52.42 15.949.01 30.839 7.11 40.849 19.46 2.715 3.346 7.7 3.708 10.86.84.04-.03.07-.06.11-.1l.07-.061c3.513-3.158 3.265-8.849-.66-11.66-12.82-14.92-31.47-23.479-51.179-23.479h-.1c-37.498 0-67.472 30.535-67.428 67.42-.033 27.794 16.952 52.344 42.079 62.55a67.726 67.726 0 0 0 46.028 1.725C74.036 467.601 106.787 512 152.307 512h.08c37.196 0 67.51-30.112 67.469-67.46.02-17.75-6.82-34.5-19.23-47.181l15.314-17.409a8107.83 8107.83 0 0 0 80.15-90.548l11.3 11.3-49.114 49.114a7.5 7.5 0 1 0 10.608 10.607l49.114-49.114 10.733 10.733-49.114 49.114a7.5 7.5 0 1 0 10.608 10.607l49.114-49.114 10.732 10.732-49.114 49.114a7.5 7.5 0 1 0 10.608 10.607l49.114-49.114 10.732 10.732-49.114 49.115a7.5 7.5 0 1 0 10.608 10.607l49.114-49.115 10.733 10.733-49.114 49.114a7.5 7.5 0 1 0 10.608 10.607l49.114-49.114 10.732 10.732-49.114 49.114a7.5 7.5 0 1 0 10.608 10.607l49.114-49.114 10.732 10.732-49.114 49.114a7.5 7.5 0 1 0 10.608 10.607l49.114-49.114 10.732 10.732-49.114 49.114a7.5 7.5 0 1 0 10.608 10.607l54.41-54.411.008-.007.007-.008 15.902-15.902c7.083-7.083 10.984-16.5 10.984-26.517s-3.901-19.434-10.983-26.517L340.352 238.205c57.504-67.082 113.25-134.367 166.663-201.215 7.248-9.071 6.516-22.105-1.699-30.319zM72.525 44.623l10.606-10.606c8.772-8.772 23.047-8.772 31.82 0l147.268 147.269a7752.267 7752.267 0 0 0-28.468 24.565L72.525 44.623zM477.984 397.05c4.25 4.249 6.591 9.899 6.591 15.909s-2.341 11.66-6.591 15.909l-10.606 10.606C462.422 434.52 316.603 288.7 305.962 278.06a7947.966 7947.966 0 0 0 24.594-28.437L477.984 397.05zm-269.028-31.786c-3.635-2.783-13.327-7.601-14.939-21.285-.45-3.779-3.64-6.62-7.43-6.62-4.531 0-7.984 3.935-7.47 8.381h.01c1.43 12.229 8.07 23.04 18.21 29.649.53.351 1.06.71 1.61 1.11-5.202 5.935-9.496 10.932-14.42 16.37a7.545 7.545 0 0 0-1.91 5.609 7.516 7.516 0 0 0 2.75 5.25c12.587 10.275 19.478 25.063 19.49 40.811-.021 28.904-23.306 52.44-52.499 52.46-28.854-.038-52.499-23.293-52.499-52.46.034-23.737 15.047-36.449 16.2-38.08l22.25-22.25c12.258-12.258 19.019-28.842 19.019-46.141.01-12.64-3.61-24.85-10.449-35.289 5.872-5.37 10.979-10.135 16.91-15.421l.03-.04C326.433 142.326 482.44 17.689 485.372 16.01c-2.011 2.011-294.635 294.509-295.985 296.03-2.75 3.1-2.46 7.85.63 10.59 3.106 2.766 7.863 2.442 10.59-.63.897-1.022 293.229-293.247 295.372-295.39-.613 1.079-121.398 154.069-287.023 338.654z"></path>
    <path d="M94.026 333.076c-23.657-23.656-64.022-6.61-64.02 26.511 0 10.011 3.903 19.426 10.99 26.512 7.311 7.31 16.911 10.963 26.515 10.963 9.601 0 19.205-3.655 26.515-10.963 14.637-14.634 14.639-38.388 0-53.023zm-10.605 42.415c-8.773 8.769-23.047 8.771-31.82 0-14.05-14.049-4.212-38.387 15.91-38.387 20.18.001 29.896 24.403 15.91 38.387zm68.94 31.56c-15.421 0-28.668 8.854-34.572 23.108-5.933 14.324-2.845 29.995 8.058 40.896 7.242 7.24 16.571 11.036 26.205 11.036 4.867 0 9.813-.97 14.603-2.954 14.313-5.93 23.205-19.186 23.205-34.595-.001-20.672-16.822-37.491-37.499-37.491zm8.552 58.229c-6.71 2.778-16.659 2.969-24.462-4.832-7.807-7.806-7.6-17.799-4.805-24.549 2.773-6.695 9.671-13.849 20.714-13.849 12.406 0 22.499 10.09 22.499 22.492 0 11.03-7.204 17.945-13.946 20.738z"></path>
  </symbol>
  <symbol fill="#fff" viewBox="0 -102 512.005 512" xmlns="http://www.w3.org/2000/svg" id="school">
    <path stroke="#fff" d="M507.52 111.746L259.094.664a7.55 7.55 0 0 0-6.184 0L152.191 45.7a7.575 7.575 0 0 0 6.188 13.828L256 15.875l89.371 39.96v55.79c-47.43-17.344-87.363-18.66-89.16-18.71a7.596 7.596 0 0 0-.422 0c-1.926.05-47.73 1.562-99.598 22.745-20.691 8.445-39.593 18.961-56.18 31.25a7.572 7.572 0 0 0-2.64 3.61L26.13 118.66 126.004 74c3.82-1.707 5.531-6.184 3.82-10.004a7.572 7.572 0 0 0-10.004-3.824L4.48 111.746a7.575 7.575 0 0 0 0 13.828l92.465 41.352v36.27a7.576 7.576 0 0 0 7.575 7.574 7.574 7.574 0 0 0 7.574-7.575v-46.342c14.828-10.586 31.57-19.72 49.824-27.168 47.469-19.387 90.707-21.485 94.086-21.621 3.308.128 43.691 2.058 89.367 19.746v75.265c-11.074 3.274-19.184 13.54-19.184 25.664 0 11.14 6.844 20.711 16.551 24.73l-5.297 13.942c-34.562 5.95-61.93 14.137-81.441 24.395-44.941-23.61-120.2-30.282-143.902-31.848v-21.246a7.576 7.576 0 0 0-7.575-7.574 7.574 7.574 0 0 0-7.574 7.574v28.402a7.577 7.577 0 0 0 7.242 7.567c.989.043 99.426 4.64 148.063 32.34a7.577 7.577 0 0 0 7.5-.004c16.351-9.32 40.871-17.227 71.406-23.079l-4.476 11.79a7.57 7.57 0 0 0 .843 6.992 7.583 7.583 0 0 0 6.235 3.273h38.375a7.578 7.578 0 0 0 7.082-10.265l-6.848-18.02c20.61-2.36 35.274-3.023 35.441-3.031a7.575 7.575 0 0 0 7.247-7.567v-28.402a7.579 7.579 0 0 0-7.575-7.574 7.576 7.576 0 0 0-7.574 7.574v21.258c-7.07.476-18.82 1.418-33.09 3.14l-3.66-9.636c9.703-4.02 16.55-13.59 16.55-24.73 0-12.13-8.108-22.391-19.187-25.665v-68.847c14.227 6.527 27.438 14.093 39.387 22.625v46.344a7.574 7.574 0 1 0 15.149-.001v-36.27l92.464-41.35a7.57 7.57 0 0 0 4.48-6.915 7.578 7.578 0 0 0-4.483-6.914zM344.738 290.844l8.207-21.598 8.207 21.598zm19.82-62.106c0 6.403-5.206 11.61-11.613 11.61-6.402 0-11.61-5.207-11.61-11.61 0-6.406 5.208-11.613 11.61-11.613 6.407 0 11.614 5.207 11.614 11.613zm50.07-78.218a7.572 7.572 0 0 0-2.64-3.61c-15.312-11.347-32.62-21.16-51.468-29.25V62.61l125.351 56.05zm0 0"></path>
  </symbol>
  <symbol fill="#fff" viewBox="0 0 64 64" xmlns="http://www.w3.org/2000/svg" id="shaving-razor">
    <path d="M60 22h-4.5a.5.5 0 0 1 0-1h1c1.379 0 2.5-1.122 2.5-2.5S57.879 16 56.5 16H33.858l4.507-4.506-1.415-1.414L31.029 16h-2.828L39.425 4.776a.5.5 0 0 1 .708.708l-.708.706a2.48 2.48 0 0 0-.732 1.768 2.502 2.502 0 0 0 4.267 1.768l3.182-3.182a1.001 1.001 0 0 1 1.415 0l8.163 8.163 1.414-1.414-8.163-8.164a3.006 3.006 0 0 0-4.243 0l-3.182 3.182a.5.5 0 0 1-.708-.708l.707-.707a2.48 2.48 0 0 0 .732-1.768c0-.667-.26-1.295-.732-1.768-.945-.944-2.59-.944-3.535 0L25.373 16H7.5C6.121 16 5 17.122 5 18.5S6.121 21 7.5 21h1a.5.5 0 0 1 0 1H4c-1.654 0-3 1.346-3 3v14c0 1.654 1.346 3 3 3h4.5a.5.5 0 0 1 0 1h-1C6.121 43 5 44.122 5 45.5S6.121 48 7.5 48h22.642l-4.507 4.506 1.414 1.414L32.971 48h2.828L24.575 59.224a.5.5 0 0 1-.708-.708l.707-.707a2.48 2.48 0 0 0 .732-1.768 2.502 2.502 0 0 0-4.267-1.768l-3.182 3.182c-.39.39-1.023.391-1.415 0L8.28 49.293l-1.414 1.414 8.163 8.164a3.006 3.006 0 0 0 4.243 0l3.182-3.182a.5.5 0 0 1 .708.708l-.707.707a2.48 2.48 0 0 0-.732 1.768c0 .667.26 1.295.732 1.768s1.1.732 1.768.732 1.295-.26 1.768-.732L38.627 48H56.5c1.379 0 2.5-1.122 2.5-2.5S57.879 43 56.5 43h-1a.5.5 0 0 1 0-1H60c1.654 0 3-1.346 3-3V25c0-1.654-1.346-3-3-3zm1 17c0 .551-.448 1-1 1h-4.5c-1.379 0-2.5 1.122-2.5 2.5s1.121 2.5 2.5 2.5h1a.5.5 0 0 1 0 1h-49a.5.5 0 0 1 0-1h1c1.379 0 2.5-1.122 2.5-2.5S9.879 40 8.5 40H4c-.552 0-1-.449-1-1V25c0-.551.448-1 1-1h4.5c1.379 0 2.5-1.122 2.5-2.5S9.879 19 8.5 19h-1a.5.5 0 0 1 0-1h49a.5.5 0 0 1 0 1h-1c-1.379 0-2.5 1.122-2.5 2.5s1.121 2.5 2.5 2.5H60c.552 0 1 .449 1 1z"></path>
    <path d="M13 20h38v2H13zm0 22h38v2H13zm43-16c-1.654 0-3 1.346-3 3h-3.021c-.939-1.246-2.416-2-3.979-2s-3.04.754-3.979 2H35.98c-.939-1.246-2.416-2-3.979-2s-3.04.754-3.979 2h-6.041c-.939-1.246-2.416-2-3.979-2s-3.04.754-3.979 2H11c0-1.654-1.346-3-3-3s-3 1.346-3 3v6c0 1.654 1.346 3 3 3s3-1.346 3-3h3.021c.939 1.246 2.416 2 3.979 2s3.04-.754 3.979-2h6.041c.939 1.246 2.416 2 3.979 2s3.04-.754 3.979-2h6.041c.939 1.246 2.416 2 3.979 2s3.04-.754 3.979-2H53c0 1.654 1.346 3 3 3s3-1.346 3-3v-6c0-1.654-1.346-3-3-3zm1 9a1.001 1.001 0 0 1-2 0v-1a1 1 0 0 0-1-1h-4.555a1 1 0 0 0-.864.497C48.033 34.438 47.068 35 46 35s-2.033-.562-2.581-1.503a1.001 1.001 0 0 0-.864-.497h-7.109a1 1 0 0 0-.864.497C34.033 34.438 33.068 35 32 35s-2.033-.562-2.581-1.503a1.001 1.001 0 0 0-.864-.497h-7.109a1 1 0 0 0-.864.497C20.033 34.438 19.068 35 18 35s-2.033-.562-2.581-1.503a1.001 1.001 0 0 0-.864-.497H10a1 1 0 0 0-1 1v1a1.001 1.001 0 0 1-2 0v-6a1.001 1.001 0 0 1 2 0v1a1 1 0 0 0 1 1h4.555a1 1 0 0 0 .864-.497C15.967 29.562 16.932 29 18 29s2.033.562 2.581 1.503c.18.308.509.497.864.497h7.109a1 1 0 0 0 .864-.497C29.967 29.562 30.932 29 32 29s2.033.562 2.581 1.503c.18.308.509.497.864.497h7.109a1 1 0 0 0 .864-.497C43.967 29.562 44.932 29 46 29s2.033.562 2.581 1.503c.18.308.509.497.864.497H54a1 1 0 0 0 1-1v-1a1.001 1.001 0 0 1 2 0z"></path>
  </symbol>
  <symbol viewBox="0 0 50 50" fill="none" xmlns="http://www.w3.org/2000/svg" id="straight-razor">
    <path d="M42.49 42.177a3.425 3.425 0 0 0 1.01-2.438v-1.016l-.527-.18c-.349-.12-.692-.25-1.035-.379V3.344A2.347 2.347 0 0 0 39.593 1h-6.25a3.91 3.91 0 0 0-3.907 3.906v19.532c0 .861.701 1.562 1.563 1.562h4.688v9.085C25.168 28.577 18.5 16.992 18.5 4.252v-.908A2.347 2.347 0 0 0 16.156 1H8.344A2.347 2.347 0 0 0 6 3.344v5.792c0 17.297 12.966 31.612 29.688 33.762v.613a5.933 5.933 0 0 0 5.926 5.926 1.888 1.888 0 0 0 1.334-3.219 3.425 3.425 0 0 1-1.01-2.438v-1.156c.196-.129.381-.276.552-.447zm-17.74-12.27a3.128 3.128 0 0 1 3.125 3.124 3.128 3.128 0 0 1-3.125 3.125 4.692 4.692 0 0 1-4.688-4.687c0-.489.031-.98.091-1.46l.469-3.75a6.207 6.207 0 0 0 1.003-3.384c0-.145-.012-.287-.021-.429a37.95 37.95 0 0 0 4.084 5.992 4.689 4.689 0 0 0-.938-.094h-1.563v1.562h1.563zm0 7.812a4.692 4.692 0 0 0 4.688-4.688 4.64 4.64 0 0 0-.066-.747 37.737 37.737 0 0 0 12.563 7.55 1.873 1.873 0 0 1-.55 1.239c-.356.356-.83.552-1.333.552a32.295 32.295 0 0 1-15.448-3.913c.05 0 .097.007.146.007zM31 4.906a2.347 2.347 0 0 1 2.344-2.343h4.353a3.614 3.614 0 0 0-.447 1.746v19.347c0 .431-.35.782-.781.782H31V4.905zm6.25 20.95a2.34 2.34 0 0 0 1.563-2.2V4.31c0-.71.359-1.355.951-1.729.35.079.611.391.611.764v34.191a36.194 36.194 0 0 1-3.125-1.537V25.856zm-17.648-7.672l-3.825-3.824a6.806 6.806 0 0 0 2.127-1.623c.43 1.866 1 3.686 1.698 5.447zM7.562 3.344c0-.431.35-.781.782-.781h7.812c.431 0 .782.35.782.78v.909c0 2.145.186 4.257.536 6.323a5.224 5.224 0 0 1-4.683 2.925 5.235 5.235 0 0 1-5.229-5.229V3.344zm5.23 11.719c.453 0 .896-.061 1.33-.149l4.512 4.513a4.845 4.845 0 0 1 1.428 3.448 4.692 4.692 0 0 1-4.687 4.688 3.128 3.128 0 0 1-3.125-3.125 3.128 3.128 0 0 1 3.125-3.125h1.563V19.75h-1.563a4.69 4.69 0 0 0-4.547 3.57A32.236 32.236 0 0 1 7.78 12.838a6.769 6.769 0 0 0 5.011 2.225zm1.59 13.954c.321.07.652.108.993.108a6.214 6.214 0 0 0 3.445-1.04l-.217 1.73a13.26 13.26 0 0 0-.103 1.654 6.2 6.2 0 0 0 .463 2.351 32.769 32.769 0 0 1-4.58-4.803zm27.461 18.306a.324.324 0 0 1-.229.552 4.37 4.37 0 0 1-4.364-4.364v-.449a34.15 34.15 0 0 0 2.802.126c.11 0 .215-.022.323-.032v.624c0 1.338.521 2.596 1.468 3.543z"
      fill="#fff"></path>
    <path d="M11.469 8.813a2.347 2.347 0 0 0 2.344-2.344 2.347 2.347 0 0 0-2.344-2.344 2.347 2.347 0 0 0-2.344 2.344 2.347 2.347 0 0 0 2.344 2.343zm0-3.126a.782.782 0 1 1 0 1.564.782.782 0 0 1 0-1.564zm23.437 34.376a.781.781 0 1 0 0-1.563.781.781 0 0 0 0 1.563z"
      fill="#fff"></path>
  </symbol>
  <symbol fill="none" viewBox="0 0 496 496" xmlns="http://www.w3.org/2000/svg" id="russia">
    <path style="fill:#E73B36;" d="M0,304v65.6C0,396.8,21.6,416,48,416h400c26.4,0,48-19.2,48-46.4V304H0z"/>
    <path style="fill:#F0F7F6;" d="M448,80H48C21.6,80,0,99.2,0,126.4V192h496v-65.6C496,99.2,474.4,80,448,80z"/>
    <rect y="192" style="fill:#3757A6;" width="496" height="112"/>
    <path style="fill:#D31C1C;" d="M446.4,416c26.4,0,49.6-19.2,49.6-46.4V304H315.2L446.4,416z"/>
    <path style="fill:#DFF2EF;" d="M448,80H48l132.8,112H496v-65.6C496,99.2,474.4,80,448,80z"/>
    <polygon style="fill:#20448E;" points="316,304 496,304 496,192 180,192 "/>
    <path style="fill:#CAEAE4;" d="M448,80H48l370.4,112H496v-65.6C496,99.2,474.4,80,448,80z"/>
    <polygon style="fill:#103577;" points="496,214.4 496,192 414.4,192 "/>
    <path style="fill:#C41010;" d="M496,368.8c0,29.6-21.6,47.2-48,47.2H48c-26.4,0-48-20.8-48-48"/>
  </symbol>
  <symbol fill="none" viewBox="0 0 496 496" xmlns="http://www.w3.org/2000/svg" id="ukraine">
    <path style="fill:#FDCE0C;" d="M0,248v121.6C0,396.8,21.6,416,48,416h400c26.4,0,48-19.2,48-46.4V248H0z"/>
    <path style="fill:#F4BA00;" d="M248,248l197.6,168c26.4,0,50.4-19.2,50.4-46.4V248H248z"/>
    <path style="fill:#44C1EF;" d="M448,80H48C21.6,80,0,99.2,0,126.4V248h496V126.4C496,99.2,474.4,80,448,80z"/>
    <path style="fill:#18B4EA;" d="M448,80H48l200,168h248V126.4C496,99.2,474.4,80,448,80z"/>
    <path style="fill:#F2A700;" d="M496,368.8c0,29.6-21.6,47.2-48,47.2H48c-26.4,0-48-20.8-48-48"/>
    <path style="fill:#10A2E2;" d="M48,80h400c26.4,0,48,19.2,48,46.4V216"/>
  </symbol>
  <symbol fill="none" viewBox="0 0 496 496" xmlns="http://www.w3.org/2000/svg" id="usa">
    <path style="fill:#FFFFFF;" d="M496,369.6c0,27.2-21.6,48.8-48,48.8H48c-26.4,0-48-21.6-48-48.8V126.4c0-27.2,21.6-43.8,48-43.8h400  c26.4,0,48,16.6,48,43.8V369.6z"/>
    <path style="fill:#CCE4E5;" d="M448,77.6H48l400,340.8c26.4,0,48-21.6,48-48.8V126.4C496,99.2,474.4,77.6,448,77.6z"/>
    <path style="fill:#AED3D3;" d="M448,77.6H48l448,137.6v-88.8C496,99.2,474.4,77.6,448,77.6z"/>
    <g>
      <path style="fill:#B22234;" d="M4.9,391.2c7.5,15.4,22.7,26.2,40.5,27.1c0.9,0,1.7,0.1,2.6,0.1h400.3c0,0,3.5-0.3,4.6-0.7   c1.7-0.6,1.9-2,0.6-3.1l-0.4-0.4L426,391.1H4.9V391.2z"/>
      <polygon style="fill:#B22234;" points="120.9,131.2 0,131.2 0,157.2 151.4,157.2  "/>
      <polygon style="fill:#B22234;" points="181.9,183.2 0,183.2 0,209.2 212.5,209.2  "/>
      <polygon style="fill:#B22234;" points="242.8,235.2 0,235.2 0,261.6 273.2,261.6  "/>
      <polygon style="fill:#B22234;" points="303.6,287.2 0,287.2 0,313.6 334.8,313.6  "/>
      <polygon style="fill:#B22234;" points="373.4,346.3 365,339.2 0,339.2 0,365.6 395.6,365.6  "/>
    </g>
    <path style="fill:#FFFFFF;" d="M48,418.4c-0.9,0-1.7,0-2.6-0.1C46.3,418.4,47.1,418.4,48,418.4z"/>
    <g>
      <polygon style="fill:#8C1126;" points="238.4,131.2 110.9,131.2 141.4,157.2 323.2,157.2  "/>
      <polygon style="fill:#8C1126;" points="202.5,209.2 488.5,209.2 403.8,183.2 171.9,183.2  "/>
      <polygon style="fill:#8C1126;" points="264,261.6 496,261.6 496,235.2 233,235.2  "/>
      <polygon style="fill:#8C1126;" points="325,313.6 496,313.6 496,287.2 294,287.2  "/>
      <polygon style="fill:#8C1126;" points="363.4,346.3 386,365.6 496,365.6 496,339.2 355.2,339.2  "/>
    </g>
    <g>
      <polygon style="fill:#5B0218;" points="222.5,131.2 286,150.7 307.2,157.2 496,157.2 496,131.2  "/>
      <polygon style="fill:#5B0218;" points="392,183.2 476.8,209.2 496,209.2 496,183.2  "/>
      <path style="fill:#5B0218;" d="M486.4,97.1c-1.4-1.9-2.9-3.6-4.5-5.3c-8.1-8.2-19.1-13.5-31.3-14.1c-0.8,0-1.7-0.1-2.5-0.1l0,0H48   c-13.1,0-25.5,5.9-34.4,14.7c-3.5,3.7-6.5,7.9-8.7,12.5h75h56.6H491C489.8,102.1,488.2,99.5,486.4,97.1z"/>
    </g>
    <path style="fill:#8C1126;" d="M491.1,391.2h-75l31.9,27.2C466.8,418.4,483.2,407.4,491.1,391.2z"/>
    <path style="fill:#3C3B6E;" d="M0,126.4v134.4h215.2V77.6H44.8C20,79.2,0,100,0,126.4z"/>
    <polygon style="fill:#1E1E44;" points="215.2,220 215.2,77.6 48,77.6 "/>
    <polygon points="215.2,128.8 215.2,77.6 48,77.6 "/>
    <g>
      <polygon style="fill:#FFFFFF;" points="60.8,96 64,85.6 68,96  "/>
      <polygon style="fill:#FFFFFF;" points="104,96 107.2,85.6 110.4,96  "/>
      <polygon style="fill:#FFFFFF;" points="146.4,96 150.4,85.6 153.6,96  "/>
      <polygon style="fill:#FFFFFF;" points="189.6,96 192.8,85.6 196.8,96  "/>
      <polygon style="fill:#FFFFFF;" points="39.2,114.4 43.2,104 46.4,114.4  "/>
      <polygon style="fill:#FFFFFF;" points="82.4,114.4 85.6,104 89.6,114.4  "/>
      <polygon style="fill:#FFFFFF;" points="125.6,114.4 128.8,104 132,114.4  "/>
      <polygon style="fill:#FFFFFF;" points="168,114.4 171.2,104 175.2,114.4  "/>
      <polygon style="fill:#FFFFFF;" points="18.4,132.8 21.6,122.4 24.8,132.8  "/>
      <polygon style="fill:#FFFFFF;" points="60.8,132.8 64,122.4 68,132.8  "/>
      <polygon style="fill:#FFFFFF;" points="104,132.8 107.2,122.4 110.4,132.8  "/>
      <polygon style="fill:#FFFFFF;" points="146.4,132.8 150.4,122.4 153.6,132.8  "/>
      <polygon style="fill:#FFFFFF;" points="189.6,132.8 192.8,122.4 196.8,132.8  "/>
      <polygon style="fill:#FFFFFF;" points="40,151.2 43.2,140.8 47.2,151.2  "/>
      <polygon style="fill:#FFFFFF;" points="83.2,151.2 86.4,140.8 89.6,151.2  "/>
      <polygon style="fill:#FFFFFF;" points="125.6,151.2 129.6,140.8 132.8,151.2  "/>
      <polygon style="fill:#FFFFFF;" points="168.8,151.2 172,140.8 175.2,151.2  "/>
      <polygon style="fill:#FFFFFF;" points="18.4,168.8 22.4,158.4 25.6,168.8  "/>
      <polygon style="fill:#FFFFFF;" points="61.6,168.8 64.8,158.4 68.8,168.8  "/>
      <polygon style="fill:#FFFFFF;" points="104.8,168.8 108,158.4 111.2,168.8  "/>
      <polygon style="fill:#FFFFFF;" points="147.2,168.8 151.2,158.4 154.4,168.8  "/>
      <polygon style="fill:#FFFFFF;" points="190.4,168.8 193.6,158.4 196.8,168.8  "/>
      <polygon style="fill:#FFFFFF;" points="40,187.2 43.2,176.8 47.2,187.2  "/>
      <polygon style="fill:#FFFFFF;" points="83.2,187.2 86.4,176.8 89.6,187.2  "/>
      <polygon style="fill:#FFFFFF;" points="125.6,187.2 129.6,176.8 132.8,187.2  "/>
      <polygon style="fill:#FFFFFF;" points="168.8,187.2 172,176.8 176,187.2  "/>
      <polygon style="fill:#FFFFFF;" points="19.2,205.6 22.4,195.2 25.6,205.6  "/>
      <polygon style="fill:#FFFFFF;" points="62.4,205.6 65.6,195.2 68.8,205.6  "/>
      <polygon style="fill:#FFFFFF;" points="104.8,205.6 108,195.2 112,205.6  "/>
      <polygon style="fill:#FFFFFF;" points="148,205.6 151.2,195.2 154.4,205.6  "/>
      <polygon style="fill:#FFFFFF;" points="190.4,205.6 194.4,195.2 197.6,205.6  "/>
      <polygon style="fill:#FFFFFF;" points="40,224 43.2,212.8 47.2,224  "/>
      <polygon style="fill:#FFFFFF;" points="83.2,224 86.4,212.8 89.6,224  "/>
      <polygon style="fill:#FFFFFF;" points="125.6,224 129.6,212.8 132.8,224  "/>
      <polygon style="fill:#FFFFFF;" points="168.8,224 172,212.8 175.2,224  "/>
      <polygon style="fill:#FFFFFF;" points="18.4,241.6 22.4,231.2 25.6,241.6  "/>
      <polygon style="fill:#FFFFFF;" points="61.6,241.6 64.8,231.2 68,241.6  "/>
      <polygon style="fill:#FFFFFF;" points="104,241.6 108,231.2 111.2,241.6  "/>
      <polygon style="fill:#FFFFFF;" points="147.2,241.6 150.4,231.2 154.4,241.6  "/>
      <polygon style="fill:#FFFFFF;" points="190.4,241.6 193.6,231.2 196.8,241.6  "/>
    </g>
  </symbol>
</svg>